<?xml version="1.0" encoding="UTF-8"?>
<svg xmlns="http://www.w3.org/2000/svg" xmlns:xlink="http://www.w3.org/1999/xlink" version="1.1" x="0px" y="0px" viewBox="0 0 3000 2000" style="background: transparent;" xml:space="preserve">
<g id="BACKGROUND">
	
</g>
<g id="OBJECTS">
	<g>
		<g>
			<path style="fill:#F6F5F5;" d="M2634.718,1129.191c-173.313-168.814-471.953-159.566-677.068-44.414     c-267.662,150.266-592.617,114.696-877.073-1.515c-198.881-81.251-430.411-103.35-609.111,120.266     c-130.83,163.714-201.253,382.813-118.596,572.568c4.802,11.025,10.494,21.664,16.863,31.981h2321.218     C2804.289,1574.981,2799.702,1289.892,2634.718,1129.191z"/>
			<path style="fill:#DADADA;" d="M350.358,1777.083c-53.971-137.384-75.857-262.102-65.049-370.691     c9.542-95.869,44.065-177.404,102.612-242.341c55.873-61.971,131.94-106.177,219.978-127.84     c81.012-19.935,167.721-19.222,244.151,2.008c115.27,32.016,191.965,104.869,210.421,199.88l-5.299,1.029     c-18.05-92.927-93.341-164.26-206.567-195.708c-75.552-20.984-161.289-21.683-241.417-1.968     c-86.985,21.403-162.112,65.047-217.259,126.213c-57.759,64.064-91.824,144.563-101.25,239.261     c-10.722,107.73,11.047,231.604,64.702,368.182L350.358,1777.083z"/>
			<path style="fill:#DADADA;" d="M2744.81,1732.792l-5.368-0.566c8.399-79.463,5.356-156.337-9.041-228.487     c-13.58-68.06-37.277-132.128-70.432-190.427c-62.527-109.945-156.9-197.001-272.917-251.757     c-56.775-26.795-117.109-45.005-179.327-54.123c-62.922-9.221-126.409-8.932-188.691,0.858     c-132.602,20.847-253.954,84.036-350.938,182.736l-3.85-3.784c97.801-99.532,220.195-163.256,353.95-184.285     c62.817-9.875,126.85-10.167,190.312-0.866c62.746,9.196,123.591,27.56,180.847,54.583     c117.029,55.233,212.228,143.054,275.306,253.969c33.442,58.802,57.341,123.413,71.035,192.039     C2750.199,1575.368,2753.265,1652.788,2744.81,1732.792z"/>
		</g>
		<g>
			<polygon style="fill:#86A7FF;" points="1866.784,579.659 1829.681,579.659 1829.681,542.559 1813.922,542.559 1813.922,579.659      1776.823,579.659 1776.823,595.419 1813.922,595.419 1813.922,632.522 1829.681,632.522 1829.681,595.419 1866.784,595.419         "/>
			<polygon style="fill:#86A7FF;" points="1412.807,649.678 1382.195,649.678 1382.195,619.068 1369.193,619.068 1369.193,649.678      1338.584,649.678 1338.584,662.681 1369.193,662.681 1369.193,693.293 1382.195,693.293 1382.195,662.681 1412.807,662.681         "/>
			<polygon style="fill:#86A7FF;" points="1532.851,322.656 1506.137,322.656 1506.137,295.943 1494.79,295.943 1494.79,322.656      1468.079,322.656 1468.079,334.003 1494.79,334.003 1494.79,360.717 1506.137,360.717 1506.137,334.003 1532.851,334.003    "/>
			<g>
				
					<ellipse transform="matrix(0.7071 -0.7071 0.7071 0.7071 -40.8029 1349.9967)" style="fill:#86A7FF;" cx="1609.189" cy="724.252" rx="110.683" ry="110.683"/>
				<g>
					<path style="fill:#FFFFFF;" d="M1621.813,779.169v16.977h-21.573v-16.211c-15.296-0.915-30.13-5.051-39.31-10.706       l11.621-26.313c10.102,5.966,23.554,9.79,35.337,9.79c10.251,0,13.926-2.142,13.926-5.817c0-13.458-59.202-2.597-59.202-42.524       c0-17.289,12.543-31.818,37.629-35.337v-16.672h21.573v16.367c11.31,1.071,22.333,3.98,31.052,8.875l-10.861,26.157       c-10.563-5.356-20.502-7.953-29.832-7.953c-10.563,0-13.925,3.058-13.925,6.726c0,12.854,59.202,2.142,59.202,41.609       C1657.449,760.66,1645.516,775.04,1621.813,779.169z"/>
				</g>
			</g>
			<g>
				
					<ellipse transform="matrix(0.2298 -0.9732 0.9732 0.2298 615.034 1771.5991)" style="fill:#86A7FF;" cx="1426.773" cy="497.235" rx="57.29" ry="57.29"/>
				<g>
					<path style="fill:#FFFFFF;" d="M1433.307,525.661v8.788h-11.167v-8.391c-7.917-0.474-15.596-2.614-20.347-5.541l6.015-13.62       c5.229,3.088,12.192,5.068,18.291,5.068c5.306,0,7.208-1.109,7.208-3.011c0-6.966-30.644-1.344-30.644-22.011       c0-8.949,6.492-16.469,19.477-18.291v-8.63h11.167v8.472c5.854,0.555,11.56,2.06,16.073,4.594l-5.622,13.539       c-5.467-2.772-10.612-4.117-15.441-4.117c-5.467,0-7.208,1.583-7.208,3.481c0,6.654,30.644,1.109,30.644,21.537       C1451.753,516.08,1445.576,523.524,1433.307,525.661z"/>
				</g>
			</g>
			<g>
				<circle style="fill:#86A7FF;" cx="1664.37" cy="465.644" r="70.763"/>
				<g>
					<path style="fill:#FFFFFF;" d="M1672.441,500.754v10.854h-13.793v-10.364c-9.779-0.585-19.263-3.229-25.132-6.844l7.43-16.823       c6.458,3.814,15.059,6.259,22.592,6.259c6.554,0,8.903-1.37,8.903-3.719c0-8.604-37.85-1.66-37.85-27.187       c0-11.053,8.019-20.342,24.057-22.592v-10.659h13.793v10.464c7.231,0.685,14.278,2.544,19.853,5.674l-6.944,16.723       c-6.753-3.424-13.108-5.085-19.072-5.085c-6.753,0-8.903,1.955-8.903,4.3c0,8.218,37.85,1.37,37.85,26.602       C1695.224,488.921,1687.595,498.114,1672.441,500.754z"/>
				</g>
			</g>
		</g>
		<g>
			<path style="fill:#86A7FF;" d="M307.216,1799.813c-8.663,10.256-132.567-309.424-77.309-317.69     C284.71,1473.924,326.596,1776.869,307.216,1799.813z"/>
			<path style="fill:#3A6BEA;" d="M312.39,1796.578c0,0-99.828-250.381-140.88-198.843     C138.012,1639.789,274.06,1797.854,312.39,1796.578z"/>
			<path style="fill:#3A6BEA;" d="M306.028,1797.661c0,0-12.225-241.374,21.017-241.714     C395.272,1555.251,337.962,1786.787,306.028,1797.661z"/>
			<path style="fill:#1F3C88;" d="M330.513,1792.048c0,0-29.832-2.155-39.889-11.481c-25.58-23.721-82.628-65.419-95.988-40.754     C176.025,1774.175,228.751,1838.711,330.513,1792.048z"/>
			<path style="fill:#1F3C88;" d="M281.945,1805.978c0,0,23.598-10.671,27.588-19.141c14.55-30.884,52.608-87.751,77.644-80.453     C426.942,1717.974,396.428,1821.3,281.945,1805.978z"/>
		</g>
		<g>
			<path style="fill:#86A7FF;" d="M2737.638,1802.863c10.554,8.154,76.695-288.339,18.302-289.857     C2698.029,1511.5,2714.027,1784.622,2737.638,1802.863z"/>
			<path style="fill:#3A6BEA;" d="M2736.768,1807.334c0,0,47.108-239.538,97.582-198.304     C2875.534,1642.675,2776.575,1804.449,2736.768,1807.334z"/>
			<path style="fill:#1F3C88;" d="M2740.248,1808.079c0,0-38.746-222.865-73.149-219.685     C2596.488,1594.921,2688.039,1809.569,2740.248,1808.079z"/>
		</g>
		<g>
			<g>
				<rect x="581.844" y="1292.591" style="fill:#86A7FF;" width="105.364" height="515.487"/>
				<rect x="687.208" y="1292.591" style="fill:#D3DFFF;" width="363.946" height="515.487"/>
				<rect x="684.801" y="1292.591" style="fill:#3A6BEA;" width="4.813" height="515.487"/>
			</g>
			<g>
				<rect x="1318.401" y="902.075" style="fill:#86A7FF;" width="105.364" height="904.347"/>
				<rect x="1423.777" y="902.053" style="fill:#D3DFFF;" width="363.946" height="904.355"/>
				<rect x="1421.358" y="902.075" style="fill:#3A6BEA;" width="4.814" height="904.347"/>
			</g>
			<g>
				<rect x="2011.775" y="1481.847" style="fill:#86A7FF;" width="105.364" height="327.277"/>
				<rect x="2117.138" y="1481.847" style="fill:#D3DFFF;" width="363.946" height="327.277"/>
			</g>
		</g>
		<g>
			<g>
				<g>
					<polygon style="fill:#102048;" points="2109.776,1692.368 2125.942,1808.078 1982.156,1808.078 2048.519,1753.626        2047.668,1695.771      "/>
					<path style="fill:#1F3C88;" d="M2013.007,1364.933c0,0-152.766,0,23.503,361.351h67.57L2013.007,1364.933z"/>
					<polygon style="fill:#1F3C88;" points="2159.038,1692.368 2175.203,1808.078 2031.417,1808.078 2097.78,1753.626        2096.929,1695.771      "/>
					<path style="fill:#3A6BEA;" d="M2337.146,1335.555c0,0,75.96,204.714-208.029,145.957l51.279,245.598l-105.256-0.9       c0,0-168.873-295.667-62.132-361.278L2337.146,1335.555z"/>
					<path style="fill:#FFFFFF;" d="M2092.052,1695.73c-21.335,0-35.129-0.324-35.404-0.331c-1.118-0.027-2.001-0.955-1.974-2.073       c0.027-1.118,0.972-1.977,2.073-1.974c0.551,0.014,55.972,1.315,117.264-1.348c1.126-0.067,2.063,0.818,2.111,1.934       c0.048,1.118-0.818,2.063-1.934,2.111C2143.219,1695.394,2113.74,1695.73,2092.052,1695.73z"/>
					<path style="fill:#FFFFFF;" d="M2112.474,1662.078c-32.029,0-65.552-1.644-68.023-1.767c-1.116-0.055-1.977-1.006-1.92-2.122       c0.056-1.116,1.024-1.986,2.122-1.92c0.269,0.013,27.292,1.351,55.935,1.684c47.548,0.558,62.79-1.963,67.208-4.172       c0.999-0.497,2.215-0.094,2.716,0.906c0.5,1,0.094,2.215-0.906,2.716C2162.319,1661.045,2137.866,1662.078,2112.474,1662.078z"/>
					<path style="fill:#FFFFFF;" d="M2121.021,1776.815c-0.487,0-0.975-0.174-1.363-0.528l-23.241-21.166       c-0.826-0.752-0.886-2.032-0.133-2.859c0.752-0.826,2.034-0.885,2.859-0.133l23.241,21.166       c0.826,0.752,0.886,2.032,0.133,2.859C2122.119,1776.593,2121.57,1776.815,2121.021,1776.815z"/>
				</g>
				<g>
					<path style="fill:#FBC343;" d="M2194.173,1097.593c0,0-125.469-22.334-149.172,253.631l304.876-14.689       c0,0,47.005-188.999-99.886-236.983L2194.173,1097.593z"/>
					<rect x="2010.117" y="1356.294" style="fill:#E5ECFF;" width="141.994" height="22.851"/>
					<path style="fill:#E28B6D;" d="M2162.836,1320.866c0,0-71.487-13.22-95.969-0.734c-21.317,10.872-16.403,21.789-8.324,19.83       l-0.605,2.874c-1.196,5.681,3.185,11.005,8.99,10.925l0,0c4.301-0.059,8.575,0.47,12.734,1.571       c19.946,5.28,82.14,21.121,96.884,17.435l11.017-15.668L2162.836,1320.866z"/>
					<path style="fill:#FBC343;" d="M2176.546,1372.768c0,0,135.139,36.233,173.331-36.233l-63.653-45.046       c0,0-46.026,32.316-123.388,29.378L2176.546,1372.768z"/>
					<polygon style="fill:#102048;" points="2096.833,1379.145 1932.866,1379.145 1884.392,1216.83 2048.359,1216.83      "/>
					<path style="fill:#E49B31;" d="M2162.833,1323.565c-1.315,0-2.467-0.963-2.667-2.302c-0.219-1.474,0.798-2.847,2.273-3.067       c1.172-0.174,117.478-17.553,144.802-27.249c1.402-0.498,2.948,0.236,3.446,1.641c0.499,1.404-0.236,2.947-1.641,3.446       c-27.816,9.87-141.008,26.786-145.813,27.502C2163.099,1323.556,2162.965,1323.565,2162.833,1323.565z"/>
					<path style="fill:#E49B31;" d="M2106.623,1315.532c-1.392,0-2.572-1.069-2.687-2.481c-0.023-0.282-2.298-28.707-1.763-65.097       c0.496-33.658,3.568-81.244,15.386-116.797c0.47-1.416,1.996-2.182,3.412-1.71c1.415,0.47,2.18,1.998,1.71,3.411       c-22.238,66.901-13.457,178.634-13.365,179.755c0.121,1.486-0.985,2.788-2.471,2.909       C2106.771,1315.528,2106.697,1315.532,2106.623,1315.532z"/>
					<path style="fill:#E49B31;" d="M2195.887,1144.353c-9.75,0-16.707-3.083-16.839-3.144c-1.355-0.62-1.952-2.221-1.333-3.577       c0.619-1.354,2.221-1.95,3.574-1.334c0.937,0.421,22.301,9.742,41.569-8.286c1.087-1.017,2.795-0.962,3.814,0.127       c1.019,1.088,0.961,2.797-0.127,3.815C2216.049,1141.774,2204.801,1144.353,2195.887,1144.353z"/>
					<path style="fill:#E49B31;" d="M2280.258,1302.487c-0.116,0-0.234-0.008-0.353-0.024c-1.478-0.193-2.52-1.547-2.327-3.025       c7.884-60.449-23.664-119.223-23.983-119.809c-0.713-1.308-0.231-2.947,1.078-3.661c1.31-0.717,2.948-0.23,3.661,1.076       c0.328,0.602,32.713,60.866,24.596,123.091C2282.753,1301.497,2281.593,1302.487,2280.258,1302.487z"/>
				</g>
				<g>
					<path style="fill:#E28B6D;" d="M2224.966,1093.076c0,10.609-6.947,20.357-17.556,23.534       c-13.194,3.932-26.927-3.662-30.697-16.748c-0.161-0.431-0.269-0.862-0.377-1.346l-6.893-30.212l-0.377-1.669l28.273-27.95       l18.203,9.101l8.832,39.905C2224.75,1089.468,2224.966,1091.298,2224.966,1093.076z"/>
					<path style="fill:#102048;" d="M2194,1068.303c0,0-2.046,13.733-17.287,31.558c-0.161-0.431-0.269-0.862-0.377-1.346       l-6.893-30.212H2194z"/>
					<path style="fill:#E28B6D;" d="M2123.64,998.967c0,0-4.712,121.843,70.346,69.336l17.839-32.985l-27.6-45.102L2123.64,998.967z       "/>
					<path style="fill:#102048;" d="M2124.844,1002.236c0,0,7.306,13.71,54.427,9.671c0,0,4.729,48.767,33.9,58.191l22.439-4.488       c10.322-102.322-30.966-128.351-81.229-106.809c-55.2-21.541-78.096,37.435-29.762,64.126       C2124.467,1015.216,2124.076,1009.932,2124.844,1002.236z"/>
					<path style="fill:#102048;" d="M2213.172,1070.098c0,0-13.015,92.448,21.99,86.166c35.005-6.283,42.634-57.444,0.449-90.653       L2213.172,1070.098z"/>
					
						<ellipse transform="matrix(0.9609 -0.2768 0.2768 0.9609 -208.9949 657.4122)" style="fill:#FBC343;" cx="2223.827" cy="1068.893" rx="19.596" ry="5.328"/>
					<g>
						<path style="fill:#102048;" d="M2130.422,1031.429c0,1.64,1.329,2.969,2.969,2.969c1.64,0,2.969-1.329,2.969-2.969        s-1.329-2.969-2.969-2.969C2131.751,1028.46,2130.422,1029.789,2130.422,1031.429z"/>
						<circle style="fill:#102048;" cx="2152.053" cy="1028.186" r="3.402"/>
						<path style="fill:#102048;" d="M2140.915,1049.608c-0.657,0-1.245-0.062-1.669-0.125c-1.614-0.238-2.93-0.997-3.705-2.137        c-0.672-0.989-0.892-2.142-0.635-3.335c0.74-3.438,5.285-6.372,6.187-6.925c0.634-0.39,1.468-0.19,1.856,0.446        c0.389,0.635,0.19,1.466-0.445,1.855c-2.131,1.305-4.592,3.487-4.959,5.192c-0.102,0.479-0.032,0.865,0.23,1.25        c0.34,0.501,1.021,0.86,1.866,0.984c1.243,0.185,2.38,0.106,3.114-0.21c0.684-0.295,1.478,0.021,1.773,0.703        c0.296,0.684-0.019,1.478-0.704,1.774C2142.882,1049.488,2141.83,1049.608,2140.915,1049.608z"/>
						<path style="fill:#102048;" d="M2144.941,1060.96c-1.401,0-2.895-0.229-4.466-0.777c-0.704-0.245-1.075-1.015-0.83-1.719        c0.244-0.703,1.011-1.078,1.718-0.829c7.64,2.661,12.993-3.92,13.217-4.202c0.464-0.581,1.313-0.68,1.896-0.217        c0.583,0.462,0.683,1.308,0.221,1.892C2156.642,1055.178,2151.98,1060.96,2144.941,1060.96z"/>
						<path style="fill:#102048;" d="M2146.418,1020.238c1.778,2.31,3.75,1.207,9.223,1.024c1.253-0.042,8.054,0.217,7.742-1.407        c-0.222-1.155-4.297-3.311-8.855-3.528c-2.518-0.12-4.649,0.216-6.789,0.965c-0.525,0.184-1.035,0.41-1.395,0.774        C2145.745,1018.672,2145.801,1019.436,2146.418,1020.238z"/>
						<path style="fill:#102048;" d="M2138.012,1020.643c-0.671,2.424-2.555,1.942-6.89,3.094c-0.992,0.264-6.227,2.117-6.489,0.637        c-0.186-1.052,2.328-3.893,5.822-5.172c1.93-0.707,3.7-0.927,5.606-0.791c0.468,0.033,0.937,0.106,1.331,0.335        C2138.05,1019.127,2138.244,1019.802,2138.012,1020.643z"/>
						<circle style="opacity:0.4;fill:#EB5D60;" cx="2171.668" cy="1041.166" r="8.166"/>
					</g>
				</g>
			</g>
			<g>
				<g>
					<path style="fill:#FFFFFF;" d="M2453.679,715.414c-68.658,0-124.315,55.658-124.315,124.316       c0,21.893,5.704,42.436,15.64,60.303l-26.055,63.4l61.093-23.708c20.627,15.216,46.038,24.32,73.637,24.32       c68.658,0,124.316-55.658,124.316-124.315C2577.995,771.072,2522.337,715.414,2453.679,715.414z"/>
					<path style="fill:#86A7FF;" d="M2314.061,968.224l27.956-68.024c-10.048-18.518-15.352-39.396-15.352-60.471       c0-70.036,56.979-127.015,127.015-127.015c70.035,0,127.014,56.978,127.014,127.015c0,70.036-56.979,127.014-127.014,127.014       c-26.694,0-52.26-8.282-74.037-23.97L2314.061,968.224z M2380.449,936.672l1.194,0.881       c21.101,15.566,46.011,23.794,72.036,23.794c67.06,0,121.615-54.557,121.615-121.617s-54.556-121.617-121.615-121.617       s-121.617,54.558-121.617,121.617c0,20.594,5.291,40.992,15.3,58.991l0.632,1.135l-24.159,58.785L2380.449,936.672z"/>
				</g>
				<g>
					<path style="fill:#86A7FF;" d="M2396.36,817.551c0-17.558,10.712-28.718,25.895-28.718c15.171,0,25.738,11.009,25.738,28.718       c0,17.71-10.566,28.724-25.738,28.724C2407.071,846.275,2396.36,835.115,2396.36,817.551z M2433.112,817.551       c0-11.16-4.314-16.516-10.857-16.516c-6.41,0-10.869,5.507-10.869,16.516c0,11.015,4.459,16.522,10.869,16.522       C2428.798,834.073,2433.112,828.717,2433.112,817.551z M2484.308,790.02h17.704l-71.129,104.173h-17.716L2484.308,790.02z        M2467.186,866.663c0-17.558,10.724-28.724,25.75-28.724c15.183,0,25.895,11.166,25.895,28.724       c0,17.558-10.712,28.724-25.895,28.724C2477.91,895.387,2467.186,884.221,2467.186,866.663z M2503.805,866.663       c0-11.015-4.326-16.522-10.869-16.522c-6.398,0-10.857,5.362-10.857,16.522c0,11.16,4.459,16.516,10.857,16.516       C2499.479,883.179,2503.805,877.677,2503.805,866.663z"/>
				</g>
			</g>
		</g>
		<g>
			<g>
				<g>
					<g>
						<polygon style="fill:#102048;" points="993.63,1658.192 1008.583,1808.815 1155.394,1807.21 1088.674,1738.726         1073.438,1655.29       "/>
						<path style="fill:#FFFFFF;" d="M1116.301,1776.053c-12.169,0.001-20.933-3.346-26.09-9.974        c-8.694-11.175-3.682-27.29-3.464-27.97c0.34-1.064,1.479-1.652,2.542-1.31c1.064,0.338,1.652,1.477,1.314,2.542        c-0.046,0.147-4.573,14.795,2.816,24.268c4.9,6.284,14.017,9.062,27.105,8.263c1.11-0.069,2.076,0.78,2.144,1.897        c0.069,1.115-0.78,2.075-1.896,2.144C1119.234,1776.005,1117.743,1776.053,1116.301,1776.053z"/>
					</g>
					<g>
						<polygon style="fill:#102048;" points="753.238,1655.703 730.021,1733.093 666.175,1848.21 798.705,1803.711         827.726,1657.638       "/>
						<path style="fill:#FFFFFF;" d="M702.318,1787.611c-0.968,0-1.824-0.697-1.992-1.683c-0.189-1.102,0.551-2.148,1.653-2.337        c19.518-3.346,31.204-9.949,34.73-19.628c4.993-13.701-8.1-29.406-8.233-29.564c-0.722-0.853-0.615-2.13,0.238-2.852        c0.854-0.723,2.131-0.616,2.853,0.239c0.605,0.714,14.734,17.679,8.945,33.564c-4.06,11.143-16.795,18.622-37.85,22.232        C702.547,1787.602,702.432,1787.611,702.318,1787.611z"/>
					</g>
					<path style="fill:#3A6BEA;" d="M1080.782,1128.18l19.521,541.004c0.658,18.239-13.521,33.593-31.755,34.386l-67.624,2.94       c-18.228,0.792-33.684-13.265-34.619-31.486l-29.751-579.912L1080.782,1128.18z"/>
					<path style="fill:#3A6BEA;" d="M1019.313,1097.894l-4.912,17.111l-9.446,32.711L848.42,1690.46       c-3.617,12.469-15.384,20.782-28.338,19.972l-83.773-5.236c-17.327-1.08-29.364-17.705-25.1-34.492l122.475-478.89       l16.086-62.992l121.989-22.239L1019.313,1097.894z"/>
					<g style="opacity:0.8;">
						<path style="fill:#FFFFFF;" d="M1042.267,1126.67c0.336,4.184,33.457,420.351,14.447,574.796l4.019,0.498        c19.059-154.854-14.095-571.43-14.433-575.623L1042.267,1126.67z"/>
						<path style="fill:#FFFFFF;" d="M893.134,1123.492c-6.588,21.049-161.296,516.17-154.111,578.453l4.024-0.461        c-7.091-61.438,152.339-571.637,153.951-576.78L893.134,1123.492z"/>
					</g>
					<polygon style="opacity:0.6;fill:#1F3C88;" points="1080.794,1128.175 1004.956,1147.715 833.684,1191.814 849.77,1128.823        971.759,1106.584 1014.402,1115.004      "/>
					<path style="fill:#1F3C88;" d="M939.375,1376.257c-0.234,0-0.472-0.031-0.709-0.095c-1.438-0.39-2.288-1.873-1.897-3.312       l29.941-110.239l42.621-30.247c1.214-0.863,2.9-0.576,3.763,0.639c0.863,1.215,0.576,2.9-0.639,3.763l-41.043,29.126       l-29.434,108.372C941.651,1375.466,940.563,1376.257,939.375,1376.257z"/>
				</g>
				<g>
					<path style="fill:#1F3C88;" d="M957.222,840.987l68.204,135.69c22.554-17.583,46.527-30.963,61.465-38.581       C1037.882,841.203,957.222,840.987,957.222,840.987z"/>
					<path style="fill:#F9B384;" d="M1202.099,892.689c0,0,6.53-22.491,0.725-28.296c-5.804-5.804-24.668,29.747-24.668,29.747       l-70.376,77.631c-6.986-12.36-13.969-23.54-20.89-33.675c-14.938,7.619-38.911,20.998-61.465,38.581l38.045,75.69       c9.395,18.692,30.369,28.518,50.744,23.773c11.677-2.719,21.799-9.957,28.149-20.127l75.697-121.244       C1223.634,917.381,1216.375,903.952,1202.099,892.689z"/>
					<path style="fill:#F9B384;" d="M850.849,1065.885c-3.454,13.063-5.236,20.997-5.236,20.997l1.727,43.074       c0,0-73.275,1.376-94.866-25.275c-14.521-17.925-12.838-47.459,12.145-101.883c6.488-14.133,10.823-23.98,16.922-34.721       c19.918,1.404,47.176,4.696,75.191,11.983l-38.36,78.178L850.849,1065.885z"/>
					<path style="fill:#1F3C88;" d="M957.222,840.987c0,0-106.912-5.857-175.671,127.063c24.292,1.771,59.366,6.252,93.518,17.417       C894.84,928.203,923.401,863.683,957.222,840.987z"/>
					<path style="fill:#1F3C88;" d="M1080.794,1128.175l-233.453,1.781c-1.565-25.693,1.781-71.035,6.154-114.541       c0.27-2.483,0.486-4.912,0.755-7.395c1.943-18.892,4.048-37.244,5.992-53.114c0.594-5.128,1.187-9.986,1.727-14.52       c2.861-22.563,4.912-37.515,4.912-37.515l90.359-61.859c42.48,13.44,103.583,93.273,103.583,93.273L1080.794,1128.175z"/>
					<g>
						<polygon style="fill:#1F3C88;" points="1212.023,867.184 1181.663,934.05 1189.331,937.903 1224.859,873.634       "/>
						<path style="fill:#102048;" d="M1232.954,858.99l-14.014-7.041c-0.212,3.394-0.986,6.463-2.338,9.196l10.501,5.276        C1228.491,863.746,1230.446,861.269,1232.954,858.99z"/>
						<path style="fill:#1F3C88;" d="M1216.603,861.146c-1.114,2.252-2.614,4.28-4.579,6.039l12.836,6.45        c0.3-2.559,1.073-4.955,2.244-7.212L1216.603,861.146z"/>
						
							<ellipse transform="matrix(0.944 -0.3299 0.3299 0.944 -199.5053 456.58)" style="fill:#1F3C88;" cx="1245.685" cy="816.187" rx="46.654" ry="46.654"/>
						
							<ellipse transform="matrix(0.6581 -0.7529 0.7529 0.6581 -188.6317 1216.9705)" style="fill:#E5ECFF;" cx="1245.685" cy="816.187" rx="36.427" ry="36.427"/>
						<path style="fill:#FFFFFF;" d="M1266.387,831.532c-0.325,0-0.656-0.059-0.977-0.184c-1.39-0.539-2.078-2.104-1.538-3.493        c4.926-12.681,1.836-24.985-7.516-29.922c-1.318-0.696-1.822-2.329-1.126-3.647c0.696-1.317,2.327-1.822,3.647-1.126        c11.855,6.259,15.979,21.33,10.027,36.65C1268.488,830.878,1267.468,831.532,1266.387,831.532z"/>
					</g>
					<g>
						<path style="fill:#E28B6D;" d="M1220.334,905.809c-5.251,4.022-11.512,6.029-14.265,3.038        c-2.656-2.886,2.324-11.103,3.996-13.469c2.366-3.349,12.7-12.983,17.024-7.575        C1231.468,893.277,1226.626,900.99,1220.334,905.809z"/>
						<path style="fill:#E28B6D;" d="M1224.566,919.231c-5.251,4.022-11.512,6.029-14.265,3.038        c-2.656-2.886,2.324-11.103,3.996-13.469c2.366-3.348,12.7-12.983,17.024-7.575        C1235.7,906.7,1230.858,914.412,1224.566,919.231z"/>
						<path style="fill:#E28B6D;" d="M1225.815,933.311c-4.691,3.593-10.285,5.386-12.744,2.714        c-2.373-2.579,2.076-9.919,3.57-12.033c2.114-2.992,11.346-11.599,15.209-6.767        C1235.761,922.116,1231.436,929.006,1225.815,933.311z"/>
					</g>
					<path style="fill:#F9B384;" d="M825.007,1129.308c0,0,58.734,5.908,59.794-0.339c1.059-6.247-12.826-9.394-12.826-9.394       s29.012,1.255,28.122-4.034c-0.889-5.289-13.421-8.924-13.421-8.924s20.346,0.559,18.228-5.306       c-2.118-5.865-19.217-10.146-19.217-10.146s27.038-4.917,16.743-10.125s-66.45-18.081-66.45-18.081L825.007,1129.308z"/>
					<path style="fill:#E28B6D;" d="M849.412,1068.359c-0.214,0-0.432-0.025-0.649-0.079l-53.753-13.27       c-1.447-0.357-2.33-1.82-1.973-3.267c0.357-1.447,1.818-2.335,3.267-1.973l53.753,13.27c1.447,0.357,2.33,1.82,1.973,3.267       C851.727,1067.537,850.625,1068.359,849.412,1068.359z"/>
					<path style="fill:#E28B6D;" d="M1090.51,992.34c-0.654,0-1.309-0.236-1.828-0.713c-1.096-1.01-1.166-2.718-0.156-3.814       l47.231-51.278c1.009-1.096,2.717-1.166,3.813-0.157c1.096,1.01,1.166,2.718,0.156,3.814l-47.23,51.278       C1091.963,992.047,1091.238,992.34,1090.51,992.34z"/>
					<path style="fill:#3A6BEA;" d="M950.129,903.706c-16.397,0-27.925-10.422-28.111-10.595c-1.092-1.014-1.156-2.722-0.142-3.814       c1.014-1.091,2.718-1.156,3.81-0.145c1.083,0.998,26.808,24.029,55.575-6.613c1.021-1.087,2.727-1.14,3.815-0.12       c1.086,1.021,1.141,2.728,0.12,3.815C972.657,899.59,960.432,903.706,950.129,903.706z"/>
					<path style="fill:#102048;" d="M857.431,978.731c-1.074,9.43-2.15,19.267-3.181,29.29c-0.27,2.483-0.486,4.912-0.755,7.395       c18.998-25.613,18.438-58.15,18.408-59.418C864.101,966.696,859.147,975.52,857.431,978.731z"/>
				</g>
				<g>
					<path style="fill:#F9B384;" d="M982.414,780.783v67.927c0,16.119-13.002,29.121-29.055,29.121       c-16.119,0-29.121-13.002-29.121-29.121v-67.927H982.414z"/>
					<path style="fill:#102048;" d="M982.414,799.091v46.302c-26.468-13.4-37.28-37.612-37.28-37.612L982.414,799.091z"/>
					<path style="fill:#F9B384;" d="M999.429,736.04c0,0,23.632,109.452-54.312,71.724l-26.948-36.899l17.827-53.897l40.63-2.488       L999.429,736.04z"/>
					<path style="fill:#EB5D60;" d="M999.429,736.04c0,0-55.141-44.361-75.041,33.167l-17.413-3.317       c0,0-14.723-59.427,38.143-70.481C990.722,685.874,999.429,736.04,999.429,736.04z"/>
					
						<ellipse transform="matrix(0.7071 -0.7071 0.7071 0.7071 -277.4069 875.9655)" style="fill:#F9B384;" cx="918.697" cy="772.848" rx="14.036" ry="16.788"/>
					<path style="fill:#102048;" d="M924.867,778.453c-0.491,0-0.964-0.268-1.203-0.734c-0.044-0.085-4.411-8.442-11.307-7.706       c-0.752,0.068-1.406-0.458-1.485-1.199c-0.079-0.741,0.458-1.406,1.199-1.485c8.751-0.927,13.786,8.751,13.997,9.164       c0.338,0.663,0.073,1.474-0.589,1.813C925.283,778.405,925.073,778.453,924.867,778.453z"/>
					<g>
						
							<ellipse transform="matrix(0.9239 -0.3827 0.3827 0.9239 -216.1411 437.7355)" style="fill:#102048;" cx="992.254" cy="762.176" rx="3.795" ry="3.795"/>
						<circle style="fill:#102048;" cx="968.301" cy="762.513" r="3.795"/>
						<path style="fill:#102048;" d="M985.491,784.309c-1.003,0-2.154-0.131-3.182-0.575c-0.684-0.296-0.999-1.089-0.703-1.774        c0.294-0.684,1.088-1.003,1.774-0.703c0.845,0.365,2.143,0.453,3.558,0.245c0.986-0.146,1.784-0.57,2.188-1.165        c0.314-0.462,0.402-0.943,0.28-1.514c-0.419-1.947-3.198-4.419-5.603-5.892c-0.635-0.389-0.835-1.22-0.445-1.856        c0.389-0.635,1.219-0.836,1.856-0.445c0.998,0.611,6.019,3.853,6.831,7.625c0.277,1.288,0.04,2.532-0.686,3.6        c-0.84,1.234-2.269,2.058-4.026,2.317C986.864,784.241,986.216,784.309,985.491,784.309z"/>
						<path style="fill:#102048;" d="M978.744,795.654c-7.778,0-12.93-6.391-12.992-6.469c-0.462-0.585-0.362-1.434,0.223-1.896        c0.584-0.462,1.432-0.363,1.894,0.221c0.259,0.326,6.297,7.738,14.916,4.737c0.703-0.249,1.473,0.125,1.718,0.83        c0.246,0.703-0.126,1.473-0.83,1.718C981.94,795.402,980.289,795.654,978.744,795.654z"/>
						<path style="fill:#102048;" d="M975.562,751.199c-0.862,2.289-3.331,1.789-8.994,2.786c-1.296,0.228-8.133,1.871-8.484,0.459        c-0.249-1.004,3.021-3.648,7.585-4.786c2.521-0.628,4.835-0.797,7.329-0.625c0.612,0.042,1.226,0.122,1.743,0.349        C975.603,749.759,975.862,750.404,975.562,751.199z"/>
						<path style="fill:#102048;" d="M986.103,751.055c0.733,2.286,2.964,1.785,8.043,2.779c1.162,0.227,7.285,1.866,7.628,0.454        c0.243-1.003-2.651-3.643-6.737-4.777c-2.257-0.626-4.337-0.794-6.585-0.621c-0.551,0.042-1.106,0.123-1.576,0.349        C986.093,749.616,985.849,750.262,986.103,751.055z"/>
						
							<ellipse transform="matrix(0.2298 -0.9732 0.9732 0.2298 -22.1204 1519.5111)" style="opacity:0.4;fill:#EB5D60;" cx="948.931" cy="773.731" rx="9.109" ry="9.109"/>
					</g>
				</g>
			</g>
			<g>
				<g>
					<path style="fill:#FFFFFF;" d="M542.26,630.449c72.791,0,131.799,59.008,131.799,131.799c0,23.211-6.047,44.99-16.581,63.933       l27.623,67.216l-64.771-25.135c-21.869,16.132-48.81,25.785-78.07,25.785c-72.791,0-131.799-59.008-131.799-131.799       S469.469,630.449,542.26,630.449z"/>
					<path style="fill:#86A7FF;" d="M689.988,898.189l-69.259-26.877c-23.074,16.644-50.174,25.434-78.469,25.434       c-74.163,0-134.498-60.335-134.498-134.498c0-74.162,60.335-134.497,134.498-134.497c74.162,0,134.497,60.335,134.497,134.497       c0,22.342-5.63,44.476-16.293,64.102L689.988,898.189z M542.26,633.148c-71.186,0-129.101,57.914-129.101,129.1       c0,71.186,57.914,129.1,129.101,129.1c27.627,0,54.069-8.734,76.467-25.258l1.195-0.881l60.292,23.397l-25.727-62.602       l0.632-1.135c10.625-19.106,16.241-40.761,16.241-62.622C671.36,691.062,613.446,633.148,542.26,633.148z"/>
				</g>
				<g>
					<path style="fill:#86A7FF;" d="M524.81,810.769c0-9.252,7.257-16.155,17.426-16.155c10.161,0,17.426,6.902,17.426,16.155       c0,9.075-7.264,16.524-17.426,16.524C532.067,827.293,524.81,819.844,524.81,810.769z"/>
					<polygon style="fill:#86A7FF;" points="525.349,698.772 559.115,698.772 553.483,781.726 530.981,781.726      "/>
				</g>
			</g>
		</g>
		<g>
			<path style="fill:#86A7FF;" d="M2104.942,630.019c-37.424-16.016-82.324-5.322-108.134,28.522     c-30.484,39.973-22.792,97.09,17.181,127.575c30.341,23.139,70.55,24.263,101.501,5.99l-46.304-78.368L2104.942,630.019z"/>
			<path style="fill:#D3DFFF;" d="M2103.821,724.534l46.304,78.368c9.826-5.801,18.728-13.538,26.073-23.171     c21.715-28.475,24.042-65.642,9.145-95.692L2103.821,724.534z"/>
			<path style="fill:#E5ECFF;" d="M2182.195,661.548c-6.016-12.135-14.827-23.114-26.326-31.883     c-6.129-4.674-12.664-8.441-19.441-11.341l-35.756,83.719L2182.195,661.548z"/>
		</g>
		<g>
			<polygon style="fill:#86A7FF;" points="1138.598,578.205 902.368,578.205 902.368,455.033 907.765,455.033 907.765,572.808      1138.598,572.808    "/>
			<polygon style="fill:#86A7FF;" points="928.208,558.629 923.626,555.778 945.398,520.787 960.355,545.261 991.799,478.182      1023.94,538.892 1111.02,455.861 1114.744,459.766 1022.505,547.715 992.093,490.268 960.983,556.635 945.357,531.068    "/>
		</g>
		<rect x="93.622" y="1805.38" style="fill:#102048;" width="2801.44" height="5.396"/>
	</g>
</g>
</svg>